<svg width="16" height="9" viewBox="0 0 16 9" fill="none" xmlns="http://www.w3.org/2000/svg">
<path d="M15.1357 1.52792C15.0349 1.79101 14.8208 1.97082 14.6196 2.16109C12.5936 4.07941 10.5673 5.99739 8.54385 7.91816C8.28817 8.16069 7.99716 8.26419 7.65098 8.15198C7.52736 8.11191 7.40706 8.03211 7.31325 7.9436C5.18794 5.93641 3.06557 3.92678 0.945406 1.91472C0.580089 1.56799 0.589287 1.12962 0.953868 0.77836C1.06607 0.670335 1.17975 0.563703 1.2927 0.456723C1.72938 0.0427405 2.16276 0.0441344 2.60276 0.460904C3.17483 1.00277 3.74691 1.54465 4.31898 2.08652C5.47637 3.1828 6.63412 4.27909 7.79078 5.37642C7.82683 5.41092 7.85368 5.45413 7.89158 5.50152C7.95375 5.44611 7.99459 5.41196 8.03322 5.37537C9.76967 3.73095 11.5076 2.08791 13.2411 0.440344C13.4927 0.201294 13.7742 0.103374 14.1211 0.19537C14.1391 0.200249 14.1583 0.205127 14.1733 0.214884C14.5622 0.468222 14.9279 0.741771 15.1122 1.17492C15.1173 1.18677 15.1276 1.19652 15.1357 1.20733C15.1357 1.31431 15.1357 1.42129 15.1357 1.52792Z" fill="#828282"/>
</svg>
