<svg width="15" height="16" viewBox="0 0 15 16" fill="none" xmlns="http://www.w3.org/2000/svg">
<path d="M11.0289 16C8.36212 16 5.69493 16 3.02814 16C3.01993 15.9941 3.01212 15.984 3.00314 15.9828C2.3629 15.8887 1.84767 15.3523 1.79532 14.6449C1.72111 13.6434 1.63243 12.6426 1.54884 11.6418C1.44923 10.4438 1.34806 9.2457 1.24806 8.04766C1.15626 6.94805 1.06329 5.84883 0.976574 4.74883C0.968371 4.64297 0.926184 4.59961 0.833605 4.56016C0.193762 4.28789 -0.143348 3.55586 0.0582148 2.89141C0.248449 2.26445 0.772277 1.87969 1.45236 1.87617C2.16056 1.87187 2.86876 1.875 3.57696 1.875C3.63165 1.875 3.68634 1.875 3.74689 1.875C3.74689 1.71055 3.74415 1.57031 3.74728 1.43008C3.75861 0.954297 3.93126 0.547656 4.33087 0.28125C4.52775 0.15 4.77306 0.0914062 4.9965 0C6.35079 0 7.70509 0 9.05939 0C9.07814 0.0078125 9.0965 0.0191406 9.11603 0.0226562C9.76017 0.133984 10.2121 0.595312 10.2891 1.24375C10.3133 1.44727 10.293 1.65586 10.293 1.875C10.3828 1.875 10.4391 1.875 10.4949 1.875C11.2031 1.875 11.9113 1.87031 12.6195 1.87656C13.3141 1.88242 13.8645 2.31484 14.0223 2.96562C14.1695 3.57227 13.8785 4.23828 13.3039 4.51484C13.1172 4.60469 13.0645 4.7125 13.0656 4.88867C13.0656 4.89922 13.0645 4.90937 13.0633 4.91992C12.9348 6.49141 12.8067 8.06328 12.6774 9.63477C12.5438 11.2582 12.4063 12.8812 12.2754 14.5051C12.2422 14.916 12.1399 15.2914 11.8356 15.5918C11.6098 15.8152 11.3293 15.9258 11.0289 16ZM1.91368 4.69414C1.97657 5.46836 2.03712 6.22578 2.10001 6.98281C2.20978 8.30039 2.32189 9.61758 2.43087 10.9348C2.5297 12.1277 2.62423 13.3211 2.72462 14.5141C2.759 14.9234 2.91759 15.0625 3.32618 15.0625C5.79454 15.0625 8.2629 15.0625 10.7313 15.0625C10.7781 15.0625 10.825 15.0641 10.8719 15.0609C11.107 15.0449 11.2793 14.8867 11.3141 14.6523C11.327 14.5648 11.3336 14.4766 11.341 14.3883C11.4078 13.5793 11.4738 12.7699 11.541 11.9605C11.6305 10.8816 11.7207 9.80273 11.8106 8.72422C11.8895 7.775 11.9692 6.82578 12.0477 5.87695C12.0801 5.48516 12.1106 5.09336 12.1426 4.69453C8.72736 4.69414 5.32853 4.69414 1.91368 4.69414ZM7.02892 3.75C8.85704 3.75 10.6852 3.75 12.5137 3.75C12.5762 3.75 12.6391 3.75312 12.7012 3.74609C13.0231 3.70977 13.2156 3.37383 13.077 3.08555C12.9734 2.87031 12.7871 2.81094 12.5602 2.81133C8.87228 2.81328 5.18439 2.8125 1.49689 2.8125C1.45001 2.8125 1.40275 2.81094 1.35626 2.81641C1.11603 2.84336 0.935168 3.04453 0.935168 3.28164C0.935168 3.51875 1.11642 3.71992 1.35665 3.74609C1.41837 3.75273 1.48165 3.75 1.54415 3.75C3.37228 3.75 5.20079 3.75 7.02892 3.75ZM9.37267 1.86758C9.37267 1.73633 9.37306 1.6125 9.37267 1.48906C9.3715 1.11484 9.19337 0.937891 8.81525 0.937891C8.03478 0.9375 7.25431 0.937891 6.47384 0.937891C6.04181 0.937891 5.61017 0.935547 5.17814 0.939063C4.92032 0.941016 4.71993 1.09766 4.69415 1.33516C4.6754 1.50859 4.69064 1.68555 4.69064 1.86797C6.24884 1.86758 7.79767 1.86758 9.37267 1.86758Z" fill="#0053A0"/>
<path d="M5.15111 13.5695C5.16556 13.9621 4.86088 14.2187 4.52611 14.0934C4.33705 14.0227 4.23158 13.8793 4.21869 13.6805C4.15306 12.668 4.09213 11.6555 4.02885 10.643C3.94955 9.3707 3.87025 8.09883 3.79095 6.82656C3.77689 6.59804 3.75775 6.36992 3.75033 6.14101C3.74095 5.84961 3.93236 5.63554 4.19994 5.62617C4.46635 5.61679 4.6683 5.81758 4.68627 6.10781C4.82338 8.33047 4.96049 10.5527 5.09799 12.775C5.114 13.0402 5.13314 13.3051 5.15111 13.5695Z" fill="#0053A0"/>
<path d="M10.3049 6.20703C10.2053 7.79609 10.1053 9.38476 10.0061 10.9738C9.95058 11.8617 9.89629 12.7496 9.84238 13.6379C9.8205 13.9984 9.50683 14.2172 9.19316 14.0887C8.9998 14.0094 8.89277 13.8301 8.90644 13.5828C8.9373 13.0269 8.97402 12.4715 9.00879 11.916C9.06738 10.9762 9.12636 10.0363 9.18496 9.09648C9.24785 8.08906 9.30878 7.08164 9.37402 6.07461C9.39121 5.80664 9.60488 5.6164 9.86074 5.62734C10.117 5.63828 10.3057 5.84336 10.3084 6.11406C10.3088 6.14531 10.3084 6.17656 10.3084 6.20781C10.3076 6.20703 10.3064 6.20703 10.3049 6.20703Z" fill="#0053A0"/>
<path d="M7.49693 9.87499C7.49693 11.1195 7.4981 12.3644 7.49615 13.609C7.49575 13.9758 7.19497 14.2098 6.87583 14.0953C6.6856 14.0273 6.58404 13.8855 6.56216 13.6871C6.5563 13.6355 6.55943 13.5832 6.55943 13.5308C6.55943 11.0937 6.55943 8.65624 6.55943 6.21913C6.55943 5.84413 6.73208 5.62616 7.02818 5.62616C7.32427 5.62616 7.49693 5.84413 7.49693 6.21913C7.49693 7.43749 7.49693 8.65624 7.49693 9.87499Z" fill="#0053A0"/>
</svg>
