<svg width="16" height="16" viewBox="0 0 16 16" fill="none" xmlns="http://www.w3.org/2000/svg">
<path d="M15.4245 0C15.5562 0.0742478 15.7096 0.126466 15.8154 0.226823C16.0273 0.428353 16.0524 0.731464 15.9107 0.991331C15.8731 1.05987 15.8292 1.12555 15.7828 1.18919C14.0537 3.56716 12.3267 5.94635 10.5917 8.31984C10.3263 8.68292 10.1992 9.06803 10.2013 9.51311C10.2096 11.0446 10.2046 12.576 10.2046 14.1075C10.2046 14.5367 10.0842 14.7084 9.67617 14.8606C8.72048 15.2171 7.76396 15.5712 6.80911 15.9302C6.51522 16.0408 6.24515 16.031 6.00518 15.8148C5.82583 15.6532 5.78988 15.4415 5.7903 15.2155C5.79155 13.4915 5.79114 11.7671 5.79114 10.043C5.79114 9.86068 5.78319 9.67792 5.79281 9.49638C5.81538 9.06109 5.6745 8.68496 5.41614 8.33167C3.67199 5.94513 1.93495 3.5537 0.195818 1.16349C-0.0483295 0.827741 -0.0709047 0.502601 0.166135 0.249669C0.26856 0.140745 0.426587 0.081591 0.55953 0C5.51438 0 10.4696 0 15.4245 0ZM6.62308 15.1176C6.69582 15.0952 6.74598 15.0821 6.79406 15.0642C7.5959 14.7663 8.39565 14.464 9.2 14.1728C9.33043 14.1254 9.37642 14.0704 9.37558 13.9309C9.36973 12.4467 9.37558 10.9622 9.37015 9.47802C9.36806 8.88485 9.54239 8.35778 9.89607 7.87394C11.5746 5.57634 13.2464 3.27425 14.9203 0.973789C14.9533 0.928506 14.9834 0.881591 15.0232 0.822846C10.3346 0.822846 5.66404 0.822846 0.974664 0.822846C1.02023 0.888118 1.05451 0.939113 1.09047 0.988883C2.75518 3.2767 4.41739 5.56655 6.08712 7.85069C6.45042 8.34758 6.63018 8.88485 6.62684 9.4972C6.61639 11.3044 6.62308 13.1117 6.62308 14.9189C6.62308 14.9793 6.62308 15.0397 6.62308 15.1176Z" fill="#0053A0"/>
</svg>
