<svg width="1920" height="1813" viewBox="0 0 1920 1813" fill="none" xmlns="http://www.w3.org/2000/svg">
<g clip-path="url(#clip0_1583_6586)">
<path fill-rule="evenodd" clip-rule="evenodd" d="M-15.78 294.527C-53.1437 427.169 187.367 884.533 1144.51 1013.81C2005.26 1130.07 2073.47 1319.36 2077.69 1361.81V1953.02C2051.81 1855.76 1898.25 1674.13 1144.51 1583.84C85.2389 1456.94 -270.285 1227.57 -38.0475 288.536L-15.78 294.527ZM2077.69 2018V1953.02C2088.18 1992.44 2077.69 2018 2077.69 2018Z" fill="#20B7C7"/>
<path fill-rule="evenodd" clip-rule="evenodd" d="M-15.78 5.9918C-53.1437 138.634 187.367 595.998 1144.51 725.275C2005.26 841.533 2073.47 1030.82 2077.69 1073.27V1664.48C2051.81 1567.22 1898.25 1385.6 1144.51 1295.3C85.2388 1168.41 -270.285 939.037 -38.0475 0L-15.78 5.9918ZM2077.69 1729.46V1664.48C2088.18 1703.9 2077.69 1729.46 2077.69 1729.46Z" fill="#20B7C7"/>
</g>
<defs>
<clipPath id="clip0_1583_6586">
<rect width="1948" height="1813" fill="white" transform="translate(-19)"/>
</clipPath>
</defs>
</svg>
